<svg width="36" height="36" viewBox="0 0 36 36" fill="none" xmlns="http://www.w3.org/2000/svg">
<g id="bath">
<g id="Group">
<path id="Vector" d="M9.02055 13.2073C9.38616 12.7931 9.37203 12.1611 8.97597 11.7651C8.56416 11.3532 7.89634 11.3532 7.48446 11.7651L6.96683 12.2827V8.04387C6.96683 7.01648 7.80269 6.18062 8.83007 6.18062C9.85746 6.18062 10.6933 7.01648 10.6933 8.04387C10.6933 8.62633 11.1655 9.09853 11.748 9.09853C12.3304 9.09853 12.8027 8.62633 12.8027 8.04387C12.8027 5.8534 11.0205 4.07129 8.83007 4.07129C6.6396 4.07129 4.85749 5.8534 4.85749 8.04387V12.2827L4.33986 11.7651C3.92805 11.3532 3.26024 11.3532 2.84835 11.7651C2.45229 12.1611 2.43823 12.793 2.80378 13.2073H9.02055Z" fill="white"/>
<path id="Vector_2" d="M34.9453 15.3164H33.7482H2.26317H1.05467C0.472209 15.3164 0 15.7886 0 16.3711C0 16.9535 0.472209 17.4257 1.05467 17.4257H1.45143C1.99775 19.4939 2.54505 21.5618 3.09355 23.6294C3.75904 26.1378 5.49847 28.0656 7.75546 28.9888L6.78052 30.1907C6.41357 30.6431 6.4829 31.3073 6.93521 31.6742C7.1306 31.8327 7.36551 31.9098 7.59894 31.9098C7.90585 31.9098 8.21023 31.7764 8.41863 31.5195L10.0181 29.5477C10.2888 29.5743 10.563 29.5896 10.8409 29.5896H25.1618C25.4424 29.5896 25.7192 29.574 25.9924 29.5469L27.5926 31.5196C27.8011 31.7765 28.1054 31.9099 28.4123 31.9099C28.6457 31.9099 28.8807 31.8328 29.076 31.6743C29.5284 31.3073 29.5977 30.6432 29.2307 30.1908L28.2537 28.9864C30.5083 28.0618 32.2455 26.1344 32.9099 23.627C33.5024 21.3905 34.0439 19.3532 34.5581 17.4258H34.9452C35.5276 17.4258 35.9999 16.9536 35.9999 16.3711C35.9999 15.7887 35.5278 15.3164 34.9453 15.3164Z" fill="white"/>
</g>
</g>
</svg>
