<svg width="36" height="36" viewBox="0 0 36 36" fill="none" xmlns="http://www.w3.org/2000/svg">
<g id="bed">
<path id="Vector" d="M30.375 16.2113C29.6658 15.9 28.8996 15.7396 28.125 15.7402H7.875C7.10051 15.7395 6.33432 15.8997 5.625 16.2106C4.62249 16.649 3.76941 17.37 3.17004 18.2854C2.57066 19.2009 2.25096 20.2711 2.25 21.3652V29.2402C2.25 29.5386 2.36853 29.8248 2.5795 30.0357C2.79048 30.2467 3.07663 30.3652 3.375 30.3652C3.67337 30.3652 3.95952 30.2467 4.1705 30.0357C4.38147 29.8248 4.5 29.5386 4.5 29.2402V28.6777C4.50182 28.5291 4.56167 28.3871 4.66677 28.282C4.77187 28.1769 4.91388 28.1171 5.0625 28.1152H30.9375C31.0861 28.1171 31.2281 28.1769 31.3332 28.282C31.4383 28.3871 31.4982 28.5291 31.5 28.6777V29.2402C31.5 29.5386 31.6185 29.8248 31.8295 30.0357C32.0405 30.2467 32.3266 30.3652 32.625 30.3652C32.9234 30.3652 33.2095 30.2467 33.4205 30.0357C33.6315 29.8248 33.75 29.5386 33.75 29.2402V21.3652C33.7489 20.2712 33.4291 19.2011 32.8298 18.2858C32.2304 17.3706 31.3774 16.6497 30.375 16.2113Z" fill="white"/>
<path id="Vector_2" d="M26.4375 5.61523H9.5625C8.51821 5.61523 7.51669 6.03008 6.77827 6.7685C6.03984 7.50693 5.625 8.50844 5.625 9.55273V14.6152C5.62503 14.6588 5.63519 14.7018 5.65468 14.7408C5.67417 14.7798 5.70245 14.8137 5.73729 14.8399C5.77213 14.8661 5.81258 14.8838 5.85545 14.8917C5.89832 14.8995 5.94243 14.8973 5.9843 14.8852C6.59845 14.7056 7.23512 14.6147 7.875 14.6152H8.17242C8.24184 14.6157 8.30897 14.5904 8.3609 14.5443C8.41282 14.4983 8.44586 14.4346 8.45367 14.3656C8.51503 13.8159 8.77673 13.3081 9.18879 12.9391C9.60084 12.5701 10.1344 12.3658 10.6875 12.3652H14.625C15.1785 12.3653 15.7125 12.5693 16.125 12.9384C16.5375 13.3074 16.7995 13.8156 16.8609 14.3656C16.8687 14.4346 16.9018 14.4983 16.9537 14.5443C17.0056 14.5904 17.0728 14.6157 17.1422 14.6152H18.862C18.9315 14.6157 18.9986 14.5904 19.0505 14.5443C19.1024 14.4983 19.1355 14.4346 19.1433 14.3656C19.2046 13.8163 19.466 13.3087 19.8776 12.9398C20.2892 12.5708 20.8222 12.3663 21.375 12.3652H25.3125C25.866 12.3653 26.4 12.5693 26.8125 12.9384C27.225 13.3074 27.487 13.8156 27.5484 14.3656C27.5562 14.4346 27.5893 14.4983 27.6412 14.5443C27.6931 14.5904 27.7603 14.6157 27.8297 14.6152H28.125C28.7649 14.6149 29.4016 14.7061 30.0157 14.8859C30.0576 14.898 30.1018 14.9002 30.1447 14.8923C30.1876 14.8844 30.2281 14.8666 30.263 14.8404C30.2978 14.8141 30.3261 14.7801 30.3456 14.741C30.365 14.7019 30.3751 14.6589 30.375 14.6152V9.55273C30.375 8.50844 29.9602 7.50693 29.2217 6.7685C28.4833 6.03008 27.4818 5.61523 26.4375 5.61523Z" fill="white"/>
</g>
</svg>
