<svg width="36" height="36" viewBox="0 0 36 36" fill="none" xmlns="http://www.w3.org/2000/svg">
<g id="calender">
<path id="Vector" d="M12.009 3.01172C11.181 3.01172 10.509 3.68372 10.509 4.51172C7.19553 4.51172 4.50903 7.19822 4.50903 10.5117V12.1047L31.5091 12.0117V10.5117C31.5091 7.19822 28.8226 4.51172 25.5091 4.51172C25.5091 3.68372 24.8371 3.01172 24.0091 3.01172C23.1811 3.01172 22.5091 3.68372 22.5091 4.51172H13.509C13.509 3.68372 12.837 3.01172 12.009 3.01172ZM4.50903 15.0117V25.5117C4.50903 28.8252 7.19553 31.5117 10.509 31.5117H25.5091C28.8226 31.5117 31.5091 28.8252 31.5091 25.5117V15.0117H4.50903Z" fill="white"/>
</g>
</svg>
