<svg width="36" height="36" viewBox="0 0 36 36" fill="none" xmlns="http://www.w3.org/2000/svg">
<g id="home (16)">
<path id="Vector" d="M21.3749 25.3027V33.1777H14.6249V25.3027C14.6249 23.4417 16.1388 21.9277 17.9999 21.9277C19.861 21.9277 21.3749 23.4417 21.3749 25.3027ZM34.6154 14.952C34.2949 15.4612 33.7464 15.7405 33.1858 15.7405C32.8784 15.7405 32.5675 15.6565 32.2882 15.4807L32.0624 15.3385V28.1152C32.0624 30.9066 29.7913 33.1777 26.9999 33.1777H24.7499V25.3027C24.7499 21.5808 21.7218 18.5527 17.9999 18.5527C14.278 18.5527 11.2499 21.5808 11.2499 25.3027V33.1777H8.99993C6.20858 33.1777 3.93743 30.9066 3.93743 28.1152V15.3385L3.71166 15.4807C2.92312 15.9775 1.88107 15.7405 1.38448 14.952C0.887901 14.1631 1.12466 13.1214 1.9132 12.6248L17.1007 3.06229C17.6506 2.71622 18.3493 2.71622 18.8992 3.06229L34.0867 12.6248C34.8752 13.1214 35.112 14.1631 34.6154 14.952ZM23.0624 13.4902C23.0624 12.5583 22.3068 11.8027 21.3749 11.8027H14.6249C13.693 11.8027 12.9374 12.5583 12.9374 13.4902C12.9374 14.4221 13.693 15.1777 14.6249 15.1777H21.3749C22.3068 15.1777 23.0624 14.4221 23.0624 13.4902Z" fill="white"/>
</g>
</svg>
