<svg width="36" height="36" viewBox="0 0 36 36" fill="none" xmlns="http://www.w3.org/2000/svg">
<g id="lighting-bulb 1" clip-path="url(#clip0_1157_6511)">
<g id="Group">
<g id="Group_2">
<g id="Icons_9_">
<g id="Group_3">
<path id="Vector" d="M22.4514 26.9131H13.5497C12.8875 26.9131 12.3499 27.4505 12.3499 28.1131C12.3499 28.7759 12.8875 29.3131 13.5497 29.3131H22.4514C23.1136 29.3131 23.6517 28.7759 23.6517 28.1131C23.6517 27.4505 23.1136 26.9131 22.4514 26.9131Z" fill="white"/>
<path id="Vector_2" d="M15.6674 34.0008V34.6546C15.6674 35.3925 16.2648 35.9906 17.0032 35.9906H18.9978C19.7347 35.9906 20.3336 35.3925 20.3336 34.6546V34.0008C21.8454 33.8934 23.0421 32.646 23.0421 31.1074H12.9578C12.9578 32.646 14.1558 33.8934 15.6674 34.0008Z" fill="white"/>
<path id="Vector_3" d="M18.0008 -0.00976562C11.3585 -0.00976562 5.97363 5.37454 5.97363 12.0167C5.97363 14.8195 6.93776 17.3923 8.54816 19.435C9.97224 21.2401 11.3221 23.2136 12.4855 25.1981H23.5142C24.6897 23.1948 26.0151 21.2583 27.4531 19.4336C29.062 17.3918 30.0267 14.8187 30.0267 12.0166C30.0267 5.37462 24.6418 -0.00976562 18.0008 -0.00976562ZM18.0208 4.16279C13.7511 4.16279 10.2792 7.63524 10.2792 11.9037C10.2792 12.5663 9.74256 13.1037 9.07886 13.1037C8.4156 13.1037 7.87897 12.5663 7.87897 11.9037C7.87897 6.31209 12.4282 1.76286 18.0208 1.76286C18.6824 1.76286 19.2207 2.3 19.2207 2.96268C19.2207 3.62535 18.6824 4.16279 18.0208 4.16279Z" fill="white"/>
</g>
</g>
</g>
</g>
</g>
<defs>
<clipPath id="clip0_1157_6511">
<rect width="36" height="36" fill="white" transform="translate(0 -0.00976562)"/>
</clipPath>
</defs>
</svg>
