<svg width="36" height="36" viewBox="0 0 36 36" fill="none" xmlns="http://www.w3.org/2000/svg">
<g id="location (9) 1">
<path id="Vector" fill-rule="evenodd" clip-rule="evenodd" d="M18 0.365234C10.7513 0.365234 4.875 6.2415 4.875 13.4902C4.875 15.0688 5.44319 16.9021 6.24825 18.741C7.0641 20.6046 8.17359 22.5846 9.36171 24.489C11.7388 28.2991 14.4865 31.8948 15.9903 33.793C17.0219 35.0949 18.9781 35.0949 20.0097 33.793C21.5136 31.8948 24.2612 28.2991 26.6383 24.489C27.8263 22.5846 28.9359 20.6046 29.7517 18.741C30.5568 16.9021 31.125 15.0688 31.125 13.4902C31.125 6.2415 25.2488 0.365234 18 0.365234ZM18 6.36523C14.4792 6.36523 11.625 9.21942 11.625 12.7402C11.625 16.261 14.4792 19.1152 18 19.1152C21.5208 19.1152 24.375 16.261 24.375 12.7402C24.375 9.21942 21.5208 6.36523 18 6.36523Z" fill="white"/>
</g>
</svg>
