<svg width="36" height="36" viewBox="0 0 36 36" fill="none" xmlns="http://www.w3.org/2000/svg">
<g id="maximize (1)">
<path id="Vector" fill-rule="evenodd" clip-rule="evenodd" d="M5.1967 5.18694C3 7.38363 3 10.9192 3 17.9902C3 25.0612 3 28.5969 5.1967 30.7935C7.39339 32.9902 10.9289 32.9902 18 32.9902C25.071 32.9902 28.6066 32.9902 30.8032 30.7935C33 28.5969 33 25.0612 33 17.9902C33 10.9192 33 7.38363 30.8032 5.18694C28.6066 2.99023 25.071 2.99023 18 2.99023C10.9289 2.99023 7.39339 2.99023 5.1967 5.18694ZM19.875 10.4902C19.875 11.1115 20.3787 11.6152 21 11.6152H22.7839L19.4545 14.9447C19.0152 15.3841 19.0152 16.0963 19.4545 16.5357C19.8939 16.975 20.6061 16.975 21.0455 16.5357L24.375 13.2062V14.9902C24.375 15.6115 24.8787 16.1152 25.5 16.1152C26.1213 16.1152 26.625 15.6115 26.625 14.9902V10.4902C26.625 9.86892 26.1213 9.36523 25.5 9.36523H21C20.3787 9.36523 19.875 9.86892 19.875 10.4902ZM16.5455 21.0357C16.9848 20.5963 16.9848 19.8841 16.5455 19.4448C16.1061 19.0054 15.3939 19.0054 14.9545 19.4448L11.625 22.7742V20.9902C11.625 20.3689 11.1213 19.8652 10.5 19.8652C9.87868 19.8652 9.375 20.3689 9.375 20.9902V25.4902C9.375 26.1115 9.87868 26.6152 10.5 26.6152H15C15.6213 26.6152 16.125 26.1115 16.125 25.4902C16.125 24.8689 15.6213 24.3652 15 24.3652H13.216L16.5455 21.0357Z" fill="white"/>
</g>
</svg>
