<svg width="36" height="36" viewBox="0 0 36 36" fill="none" xmlns="http://www.w3.org/2000/svg">
<g id="offer">
<path id="Vector" d="M32.1 17.3902L18.6 3.89023C18.075 3.29023 17.325 2.99023 16.5 2.99023H6C4.35 2.99023 3 4.34023 3 5.99023V16.4902C3 17.3152 3.3 18.0652 3.9 18.5902L17.4 32.0902C17.925 32.6152 18.675 32.9902 19.5 32.9902C20.325 32.9902 21.075 32.6152 21.6 32.0902L32.1 21.5902C32.625 21.0652 33 20.3152 33 19.4902C33 18.6652 32.625 17.9152 32.1 17.3902ZM8.25 10.4902C6.975 10.4902 6 9.51523 6 8.24023C6 6.96523 6.975 5.99023 8.25 5.99023C9.525 5.99023 10.5 6.96523 10.5 8.24023C10.5 9.51523 9.525 10.4902 8.25 10.4902Z" fill="white"/>
</g>
</svg>
