<svg width="36" height="36" viewBox="0 0 36 36" fill="none" xmlns="http://www.w3.org/2000/svg">
<g id="plug (1) 1" clip-path="url(#clip0_255_5761)">
<g id="Group">
<g id="Group_2">
<path id="Vector" d="M36 20.638C36 19.6164 35.1695 18.7859 34.1478 18.7859H28.7015C24.1372 18.7859 20.4402 22.4755 20.4181 27.0325C20.4108 29.4065 18.7276 31.516 16.3757 31.81C13.5533 32.1628 11.1425 29.9578 11.1425 27.2089V23.0635C15.3761 22.2036 18.5659 18.4625 18.5659 13.9717V9.26769C18.5659 8.59885 18.0294 8.0623 17.3606 8.0623H15.06V2.2485C15.06 1.33711 14.3985 0.528613 13.4945 0.440414C12.4581 0.337514 11.5835 1.15336 11.5835 2.175V8.0623H6.99714V2.2485C6.99714 1.33711 6.33565 0.528613 5.42425 0.440414C4.38791 0.344864 3.51327 1.15336 3.51327 2.175V8.0623H1.20539C0.536545 8.0623 0 8.59885 0 9.26769V13.9717C0 18.4625 3.18987 22.2036 7.42344 23.0635V26.9957C7.42344 31.516 10.9294 35.3747 15.4496 35.5437C20.1976 35.7201 24.1225 31.9129 24.1225 27.2015V27.1354C24.1225 24.5703 26.2025 22.4976 28.7603 22.4976H34.1405C35.1695 22.4902 36 21.6597 36 20.638Z" fill="white"/>
</g>
</g>
</g>
<defs>
<clipPath id="clip0_255_5761">
<rect width="36" height="36" fill="white" transform="translate(0 -0.00976562)"/>
</clipPath>
</defs>
</svg>
