<svg width="36" height="36" viewBox="0 0 36 36" fill="none" xmlns="http://www.w3.org/2000/svg">
<g id="terms-and-conditions">
<g id="Layer 2">
<path id="Vector" d="M27 2.99023H9C7.80653 2.99023 6.66193 3.46434 5.81802 4.30825C4.97411 5.15217 4.5 6.29676 4.5 7.49023V28.4902C4.5 29.6837 4.97411 30.8283 5.81802 31.6722C6.66193 32.5161 7.80653 32.9902 9 32.9902H27C28.1935 32.9902 29.3381 32.5161 30.182 31.6722C31.0259 30.8283 31.5 29.6837 31.5 28.4902V7.49023C31.5 6.29676 31.0259 5.15217 30.182 4.30825C29.3381 3.46434 28.1935 2.99023 27 2.99023ZM12 8.24023H18C18.3978 8.24023 18.7794 8.39827 19.0607 8.67957C19.342 8.96088 19.5 9.34241 19.5 9.74023C19.5 10.1381 19.342 10.5196 19.0607 10.8009C18.7794 11.0822 18.3978 11.2402 18 11.2402H12C11.6022 11.2402 11.2206 11.0822 10.9393 10.8009C10.658 10.5196 10.5 10.1381 10.5 9.74023C10.5 9.34241 10.658 8.96088 10.9393 8.67957C11.2206 8.39827 11.6022 8.24023 12 8.24023ZM24 27.7402H12C11.6022 27.7402 11.2206 27.5822 10.9393 27.3009C10.658 27.0196 10.5 26.6381 10.5 26.2402C10.5 25.8424 10.658 25.4609 10.9393 25.1796C11.2206 24.8983 11.6022 24.7402 12 24.7402H24C24.3978 24.7402 24.7794 24.8983 25.0607 25.1796C25.342 25.4609 25.5 25.8424 25.5 26.2402C25.5 26.6381 25.342 27.0196 25.0607 27.3009C24.7794 27.5822 24.3978 27.7402 24 27.7402ZM24 22.2352H12C11.6022 22.2352 11.2206 22.0772 10.9393 21.7959C10.658 21.5146 10.5 21.1331 10.5 20.7352C10.5 20.3374 10.658 19.9559 10.9393 19.6746C11.2206 19.3933 11.6022 19.2352 12 19.2352H24C24.3978 19.2352 24.7794 19.3933 25.0607 19.6746C25.342 19.9559 25.5 20.3374 25.5 20.7352C25.5 21.1331 25.342 21.5146 25.0607 21.7959C24.7794 22.0772 24.3978 22.2352 24 22.2352ZM24 16.7452H12C11.6022 16.7452 11.2206 16.5872 10.9393 16.3059C10.658 16.0246 10.5 15.6431 10.5 15.2452C10.5 14.8474 10.658 14.4659 10.9393 14.1846C11.2206 13.9033 11.6022 13.7452 12 13.7452H24C24.3978 13.7452 24.7794 13.9033 25.0607 14.1846C25.342 14.4659 25.5 14.8474 25.5 15.2452C25.5 15.6431 25.342 16.0246 25.0607 16.3059C24.7794 16.5872 24.3978 16.7452 24 16.7452Z" fill="white"/>
</g>
</g>
</svg>
